<svg width="23" height="23" viewBox="0 0 23 23" fill="none" xmlns="http://www.w3.org/2000/svg">
<path d="M1 1V0.25H0.25V1H1ZM22 1H22.75V0.25H22V1ZM22 22V22.75H22.75V22H22ZM1 22H0.25V22.75H1V22ZM7.125 9.75V9C6.71079 9 6.375 9.33579 6.375 9.75H7.125ZM7.125 13.25H6.375C6.375 13.6642 6.71079 14 7.125 14V13.25ZM9.75 13.25H10.5C10.5 12.8358 10.1642 12.5 9.75 12.5V13.25ZM9.75 19.375H9C9 19.7892 9.33579 20.125 9.75 20.125V19.375ZM13.25 19.375V20.125C13.6642 20.125 14 19.7892 14 19.375H13.25ZM13.25 13.25V12.5C12.8358 12.5 12.5 12.8358 12.5 13.25H13.25ZM15.875 13.25V14C16.2191 14 16.5191 13.7658 16.6026 13.4319L15.875 13.25ZM16.75 9.75L17.4776 9.9319C17.5336 9.70785 17.4833 9.47048 17.3412 9.28844C17.199 9.10641 16.981 9 16.75 9V9.75ZM13.25 9.75H12.5C12.5 10.1642 12.8358 10.5 13.25 10.5V9.75ZM14.125 7.125V7.875V7.125ZM16.75 7.125V7.875C17.1642 7.875 17.5 7.53921 17.5 7.125H16.75ZM16.75 3.625H17.5C17.5 3.21079 17.1642 2.875 16.75 2.875V3.625ZM9.75 8H9H9.75ZM9.75 9.75V10.5C10.1642 10.5 10.5 10.1642 10.5 9.75H9.75ZM1 1.75H22V0.25H1V1.75ZM21.25 1V22H22.75V1H21.25ZM22 21.25H1V22.75H22V21.25ZM1.75 22V1H0.25V22H1.75ZM6.375 9.75V13.25H7.875V9.75H6.375ZM7.125 14H9.75V12.5H7.125V14ZM9 13.25V19.375H10.5V13.25H9ZM9.75 20.125H13.25V18.625H9.75V20.125ZM14 19.375V13.25H12.5V19.375H14ZM13.25 14H15.875V12.5H13.25V14ZM16.6026 13.4319L17.4776 9.9319L16.0224 9.5681L15.1474 13.0681L16.6026 13.4319ZM16.75 9H13.25V10.5H16.75V9ZM14 9.75V8H12.5V9.75H14ZM14 8C14 7.96685 14.0132 7.93506 14.0366 7.91161L12.976 6.85095C12.6712 7.1557 12.5 7.56902 12.5 8H14ZM14.0366 7.91161C14.0601 7.88817 14.0918 7.875 14.125 7.875L14.125 6.375C13.694 6.375 13.2807 6.54621 12.976 6.85095L14.0366 7.91161ZM14.125 7.875H16.75V6.375H14.125V7.875ZM17.5 7.125V3.625H16V7.125H17.5ZM16.75 2.875H14.125V4.375H16.75V2.875ZM14.125 2.875C12.7658 2.875 11.4622 3.41496 10.5011 4.37608L11.5617 5.43674C12.2416 4.75692 13.1636 4.375 14.125 4.375V2.875ZM10.5011 4.37608C9.53995 5.3372 9 6.64077 9 8H10.5C10.5 7.03859 10.8819 6.11656 11.5617 5.43674L10.5011 4.37608ZM9 8V9.75H10.5V8H9ZM9.75 9H7.125V10.5H9.75V9Z" fill="#959597"/>
</svg>
