<svg width="23" height="23" viewBox="0 0 23 23" fill="none" xmlns="http://www.w3.org/2000/svg">
<path d="M17.4062 5.59374V5.5959M6.25 1H16.75C19.6495 1 22 3.3505 22 6.25V16.75C22 19.6495 19.6495 22 16.75 22H6.25C3.3505 22 1 19.6495 1 16.75V6.25C1 3.3505 3.3505 1 6.25 1ZM15.4375 11.5C15.4375 13.6746 13.6746 15.4375 11.5 15.4375C9.32538 15.4375 7.5625 13.6746 7.5625 11.5C7.5625 9.32537 9.32538 7.56249 11.5 7.56249C13.6746 7.56249 15.4375 9.32537 15.4375 11.5Z" stroke="#959597" stroke-width="2" stroke-linecap="round" stroke-linejoin="round"/>
</svg>
