<?xml version="1.0" encoding="utf-8"?>
<!-- Generator: Adobe Illustrator 24.0.1, SVG Export Plug-In . SVG Version: 6.00 Build 0)  -->
<svg version="1.1" id="Camada_1" xmlns="http://www.w3.org/2000/svg" xmlns:xlink="http://www.w3.org/1999/xlink" x="0px" y="0px"
	 viewBox="0 0 60 30" style="enable-background:new 0 0 60 30;" xml:space="preserve">
<style type="text/css">
	.st0{fill:#999999;}
	.st1{fill-rule:evenodd;clip-rule:evenodd;fill:#999999;}
</style>
<g>
	<path class="st0" d="M48.35,23.2c-0.08-0.04-0.16-0.1-0.25-0.12c-0.9-0.2-1.48-0.77-1.89-1.56c-0.3-0.58-0.46-1.18-0.51-1.85
		c-0.11-1.72,0.24-3.35,1-4.88c0.45-0.89,1.02-1.73,1.91-2.25c1.19-0.7,2.45-0.9,3.74-0.27c1.01,0.49,1.22,1.53,0.71,2.45
		c-0.61,1.11-1.58,1.84-2.76,2.29c-0.71,0.27-1.39,0.18-2.05-0.18c-0.21-0.12-0.27-0.11-0.33,0.13c-0.13,0.51-0.25,1.01-0.33,1.53
		c-0.11,0.68-0.08,1.37,0.1,2.04c0.2,0.76,0.65,1.05,1.42,0.9c0.66-0.13,1.26-0.42,1.83-0.77c0.41-0.25,0.84-0.43,1.34-0.39
		c0.06,0,0.12,0,0.17,0.02c0.56,0.16,0.74,0.69,0.33,1.11c-0.34,0.34-0.73,0.64-1.14,0.89c-0.61,0.37-1.24,0.69-1.96,0.81
		c-0.22,0.04-0.44,0.07-0.66,0.1C48.81,23.2,48.58,23.2,48.35,23.2z M49.32,15.52c0.33-0.01,0.62-0.14,0.9-0.29
		c0.5-0.28,0.89-0.68,1.12-1.2c0.1-0.21,0.02-0.34-0.21-0.35c-0.18-0.01-0.38-0.03-0.53,0.04c-0.36,0.17-0.72,0.35-1.04,0.59
		c-0.29,0.22-0.54,0.51-0.79,0.78c-0.17,0.19-0.14,0.27,0.11,0.33C49.03,15.46,49.17,15.48,49.32,15.52z"/>
	<path class="st0" d="M54.04,10.98c-0.07,0.36-0.31,0.54-0.65,0.59c-0.4,0.07-0.74-0.08-0.96-0.39c-0.21-0.29-0.36-0.63-0.52-0.96
		c-0.08-0.16-0.12-0.33-0.19-0.53c-0.23,0.21-0.44,0.39-0.65,0.58c-0.26,0.24-0.51,0.48-0.77,0.72c-0.39,0.35-1,0.28-1.26-0.14
		c-0.14-0.23-0.14-0.42,0.03-0.63c0.64-0.77,1.32-1.49,2.17-2.04c0.42-0.27,0.87-0.38,1.34-0.12c0.32,0.18,0.52,0.45,0.64,0.81
		c0.16,0.47,0.33,0.94,0.51,1.41c0.09,0.23,0.2,0.44,0.3,0.66C54.04,10.95,54.04,10.97,54.04,10.98z"/>
	<path class="st0" d="M26.42,15.32c-0.3,0.7-0.58,1.4-0.9,2.09c-0.46,0.96-0.93,1.92-1.44,2.86c-0.2,0.36-0.49,0.67-0.87,0.87
		c-0.86,0.45-1.61,0.01-1.98-0.71c-0.35-0.68-0.48-1.44-0.5-2.2c-0.01-0.49-0.06-0.99-0.04-1.48c0.07-1.51,0.34-2.99,1.02-4.36
		c0.41-0.81,0.97-1.51,1.75-2.03c0.82-0.54,2.08-0.54,2.81,0.22c0.05,0.06,0.15,0.07,0.22,0.11c0.03-0.07,0.08-0.13,0.09-0.2
		c0.09-0.87,0.16-1.75,0.28-2.62c0.13-0.94,0.29-1.87,0.47-2.79c0.08-0.42,0.22-0.83,0.37-1.23c0.17-0.45,0.46-0.78,0.97-0.83
		c0.34-0.03,0.66,0.05,0.92,0.28c0.3,0.26,0.28,0.61,0.2,0.96c-0.23,0.99-0.51,1.97-0.7,2.97c-0.15,0.81-0.21,1.63-0.29,2.45
		c-0.08,0.83-0.15,1.67-0.21,2.5c-0.04,0.46-0.07,0.93-0.09,1.39c-0.02,0.56-0.03,1.12-0.05,1.67c-0.02,0.74-0.03,1.47-0.04,2.21
		c-0.02,0.9-0.04,1.8-0.04,2.71c0,0.44,0.07,0.87,0.08,1.31c0.01,0.44-0.22,0.71-0.68,0.84c-0.36,0.1-0.74-0.06-0.94-0.4
		c-0.26-0.44-0.34-0.93-0.37-1.42c-0.03-0.53-0.05-1.06-0.04-1.59c0.01-0.82,0.05-1.64,0.07-2.47c0.01-0.36,0-0.71,0-1.07
		C26.47,15.33,26.45,15.33,26.42,15.32z M22.72,18.7c0.02,0,0.03,0.01,0.05,0.01c0.06-0.1,0.12-0.19,0.17-0.29
		c0.34-0.77,0.68-1.55,1.02-2.32c0.42-0.97,0.82-1.96,1.27-2.92c0.21-0.46,0.22-0.83-0.12-1.22c-0.3-0.34-0.47-0.37-0.79-0.06
		c-0.03,0.02-0.05,0.05-0.07,0.08c-0.57,0.58-0.87,1.3-1.11,2.06c-0.37,1.18-0.53,2.39-0.49,3.62
		C22.65,18.01,22.69,18.36,22.72,18.7z"/>
	<path class="st0" d="M13.04,16.94c-0.2,0.57-0.37,1.09-0.58,1.6c-0.43,1.06-0.85,2.11-1.32,3.15c-0.18,0.41-0.41,0.8-0.77,1.1
		c-0.75,0.59-1.7,0.43-2.21-0.5c-0.28-0.51-0.44-1.06-0.5-1.63c-0.08-0.72-0.2-1.44-0.19-2.16c0.02-0.84,0.14-1.68,0.28-2.51
		c0.19-1.15,0.63-2.2,1.38-3.11c0.57-0.69,1.25-1.21,2.2-1.21c0.51,0,0.97,0.2,1.33,0.57c0.1,0.1,0.17,0.12,0.26,0
		c0.4-0.49,1.36-0.43,1.72,0.11c0.13,0.19,0.19,0.46,0.21,0.7c0.07,0.88,0.12,1.75,0.17,2.63c0.02,0.34,0.02,0.69,0.05,1.03
		c0.06,0.83,0.12,1.67,0.21,2.5c0.1,0.89,0.24,1.77,0.34,2.66c0.05,0.39,0.01,0.77-0.38,1c-0.41,0.25-0.93,0.14-1.2-0.26
		c-0.31-0.46-0.39-0.99-0.46-1.53c-0.16-1.35-0.35-2.7-0.52-4.04C13.09,17.03,13.08,17.01,13.04,16.94z M9.61,20.52
		c0.02,0,0.04,0.01,0.06,0.01c0.04-0.07,0.09-0.13,0.11-0.2c0.41-1.09,0.81-2.19,1.22-3.29c0.27-0.71,0.53-1.42,0.82-2.12
		c0.26-0.63,0.2-0.97-0.31-1.41c-0.17-0.15-0.33-0.17-0.47,0.01c-0.28,0.34-0.6,0.68-0.77,1.07c-0.7,1.65-0.94,3.38-0.77,5.17
		C9.53,20.02,9.57,20.27,9.61,20.52z"/>
	<path class="st0" d="M29.81,17.02c0.03-1.79,0.33-3.26,0.96-4.66c0.39-0.87,1.05-1.43,1.98-1.68c0.55-0.15,1.1-0.25,1.68-0.23
		c0.67,0.02,1.22,0.26,1.63,0.81c0.69,0.93,0.98,1.96,0.85,3.11c-0.18,1.61-0.69,3.13-1.35,4.6c-0.27,0.59-0.57,1.16-0.99,1.65
		c-0.55,0.66-1.23,1.09-2.13,1.07c-0.59-0.01-1.05-0.31-1.44-0.72c-0.67-0.72-0.9-1.63-1.04-2.57
		C29.87,17.87,29.84,17.32,29.81,17.02z M32.1,16.44c0.02,0.32,0.06,0.64,0.06,0.96c-0.01,0.61,0.11,1.2,0.29,1.77
		c0.03,0.11,0.16,0.29,0.23,0.28c0.11-0.01,0.26-0.12,0.32-0.23c0.79-1.44,1.38-2.94,1.6-4.58c0.08-0.61,0.12-1.21-0.18-1.78
		c-0.21-0.4-0.46-0.43-0.77-0.09c-0.1,0.11-0.18,0.22-0.29,0.31c-0.09,0.08-0.2,0.15-0.31,0.17c-0.25,0.05-0.4,0.2-0.48,0.44
		C32.26,14.59,32.09,15.5,32.1,16.44z"/>
	<path class="st0" d="M39.92,13.96c0.28-0.4,0.54-0.78,0.8-1.14c0.71-0.96,1.51-1.84,2.54-2.47c0.71-0.44,1.48-0.59,2.27-0.21
		c0.46,0.22,0.77,0.61,1.02,1.05c0.38,0.67,0.57,1.39,0.55,2.16c-0.02,0.58-0.26,0.94-0.69,1c-0.65,0.08-1.06-0.17-1.22-0.77
		c-0.07-0.28-0.1-0.56-0.17-0.84c-0.05-0.21-0.12-0.43-0.21-0.63c-0.09-0.23-0.28-0.32-0.51-0.24c-0.2,0.07-0.4,0.18-0.54,0.33
		c-0.43,0.45-0.87,0.9-1.23,1.41c-0.55,0.79-1.07,1.61-1.53,2.46c-0.73,1.36-1.15,2.84-1.41,4.36c-0.07,0.42-0.17,0.83-0.3,1.23
		c-0.15,0.5-0.47,0.7-0.98,0.69c-0.45-0.01-0.77-0.24-0.91-0.71c-0.06-0.2-0.11-0.42-0.1-0.63c0.06-1.11,0.11-2.23,0.21-3.34
		c0.12-1.26,0.28-2.52,0.44-3.77c0.07-0.54,0.11-1.09,0.24-1.61c0.07-0.31,0.24-0.62,0.45-0.86c0.26-0.3,0.78-0.31,1.14-0.11
		c0.3,0.17,0.47,0.58,0.41,0.97C40.11,12.82,40.02,13.36,39.92,13.96z"/>
	<path class="st0" d="M12.15,10.17c-0.42,0.02-0.75-0.17-0.97-0.5c-0.32-0.48-0.61-0.98-0.9-1.49c-0.12-0.2-0.19-0.43-0.12-0.68
		c0.12-0.42,0.47-0.57,0.84-0.63c0.34-0.05,0.64,0.1,0.84,0.38c0.25,0.36,0.49,0.73,0.73,1.09c0.13,0.2,0.25,0.42,0.38,0.62
		C13.31,9.53,12.85,10.23,12.15,10.17z"/>
	<g id="Retângulo_Arredondado_1_8_">
		<g>
			<path class="st1" d="M50.62,25.42c-13.48-2.09-27.2-2.09-40.67,0c-0.22,0.03-0.35,0.31-0.3,0.61c0.05,0.3,0.26,0.52,0.48,0.49
				c13.36-2.07,26.97-2.07,40.33,0c0.21,0.03,0.43-0.19,0.48-0.49C50.97,25.72,50.84,25.45,50.62,25.42z"/>
		</g>
	</g>
</g>
</svg>
