<svg width="28" height="23" viewBox="0 0 28 23" fill="none" xmlns="http://www.w3.org/2000/svg">
<path d="M27.2001 1.14489C25.8901 1.78679 24.6063 2.04748 23.2701 2.44179C21.8016 0.784634 19.6243 0.692934 17.5323 1.47632C15.4402 2.2597 14.0699 4.17493 14.1 6.3718V7.68181C9.84908 7.79054 6.06317 5.85435 3.62001 2.44179C3.62001 2.44179 -1.85843 12.1791 8.86003 16.8518C6.4077 18.4854 3.96192 19.5871 1 19.4718C5.3335 21.8338 10.0561 22.646 14.1446 21.4591C18.8344 20.0967 22.6884 16.582 24.1674 11.3171C24.6086 9.71581 24.8277 8.06153 24.8185 6.40062C24.8159 6.07443 26.7966 2.76929 27.2001 1.14358V1.14489Z" stroke="#959597" stroke-width="1.5" stroke-linecap="round" stroke-linejoin="round"/>
</svg>
